<svg width="17" height="20" viewBox="0 0 17 20" fill="none" xmlns="http://www.w3.org/2000/svg">
<path d="M13.7015 10.5689C13.693 8.9302 14.3986 7.69336 15.8269 6.78248C15.0277 5.58137 13.8205 4.92054 12.2265 4.79105C10.7174 4.66603 9.06811 5.71533 8.4645 5.71533C7.82688 5.71533 6.3646 4.8357 5.21689 4.8357C2.84494 4.87589 0.324219 6.82267 0.324219 10.7832C0.324219 11.9531 0.528257 13.1616 0.936334 14.4089C1.48044 16.0476 3.4443 20.0662 5.49319 19.9992C6.56439 19.9724 7.32103 19.1999 8.71529 19.1999C10.067 19.1999 10.7684 19.9992 11.9629 19.9992C14.0288 19.9679 15.8056 16.3155 16.3242 14.6723C13.5527 13.3015 13.7015 10.6537 13.7015 10.5689ZM11.2955 3.2372C12.456 1.7905 12.3497 0.4733 12.3157 0C11.2913 0.0625114 10.1053 0.732276 9.42943 1.55832C8.68554 2.44241 8.2477 3.53636 8.34122 4.76872C9.45068 4.85803 10.4624 4.2597 11.2955 3.2372Z" fill="white"/>
</svg>
