<svg width="54" height="47" viewBox="0 0 54 47" fill="none" xmlns="http://www.w3.org/2000/svg">
<mask id="mask0_552_1087" style="mask-type:alpha" maskUnits="userSpaceOnUse" x="0" y="0" width="54" height="47">
<rect width="53.2289" height="47" fill="#C4C4C4"/>
</mask>
<g mask="url(#mask0_552_1087)">
<g opacity="0.1">
<path d="M16.2318 5.34049C25.6465 3.80903 24.1436 11.3458 36.7473 16.8964C57.0837 30.6251 30.1164 53.7602 13.0546 36.6226C4.55087 28.5417 3.87728 7.35004 16.2318 5.34049Z" fill="#02D3B3"/>
<path d="M38.6153 40.8245C36.4271 43.5843 39.4407 46.0369 41.7068 43.3433C43.8989 40.5796 40.8853 38.127 38.6153 40.8245Z" fill="#02D3B3"/>
<path d="M34.5622 43.0129C33.982 44.8009 35.9483 45.4656 36.5791 43.697C37.1592 41.909 35.193 41.2444 34.5622 43.0129Z" fill="#02D3B3"/>
<path d="M20.9696 2.99669C20.806 4.87019 22.8697 5.08009 23.0877 3.21435C23.2512 1.34085 21.1876 1.13095 20.9696 2.99669Z" fill="#02D3B3"/>
<path d="M28.1347 3.74676C29.6571 6.9224 26.1723 8.6482 24.5603 5.51921C23.0379 2.34357 26.5227 0.617768 28.1347 3.74676Z" fill="#02D3B3"/>
</g>
</g>
<path d="M36.2412 20.3687C36.2412 14.1233 31.2973 9.06006 25.199 9.06006C19.1007 9.06006 14.1569 14.1233 14.1569 20.3687C14.1569 25.9113 18.053 30.5144 23.1914 31.4268V33.6789H20.1799C19.6255 33.6789 19.176 34.1391 19.176 34.707V36.7631C19.176 37.3309 19.6255 37.7912 20.1799 37.7912H23.1914V40.8754C23.1914 41.4431 23.6408 41.9034 24.1952 41.9034H26.2029C26.7574 41.9034 27.2067 41.4431 27.2067 40.8754V37.7912H30.2182C30.7727 37.7912 31.222 37.3309 31.222 36.7631V34.707C31.222 34.1391 30.7727 33.6789 30.2182 33.6789H27.2067V31.4268C32.3451 30.5144 36.2412 25.9139 36.2412 20.3687ZM25.199 26.5371C21.8782 26.5371 19.176 23.7697 19.176 20.3687C19.176 16.9671 21.8782 14.2004 25.199 14.2004C28.5205 14.2004 31.222 16.9671 31.222 20.3687C31.222 23.7678 28.518 26.5371 25.199 26.5371Z" fill="#00CDB4"/>
</svg>
