<svg width="20" height="18" viewBox="0 0 20 18" fill="none" xmlns="http://www.w3.org/2000/svg">
<path d="M17.7716 10.1109L17.7959 15.7395C17.7959 15.8379 17.7889 15.9293 17.7785 16.0242V16.5938C17.7785 17.3707 17.157 18 16.3896 18H15.834C15.7958 18 15.7576 17.9684 15.7194 17.9965C15.6708 17.9684 15.6222 18 15.5736 18H13.6117C12.8443 18 12.2227 17.3707 12.2227 16.5938V13.5C12.2227 12.8777 11.7262 12.375 11.1116 12.375H8.88926C8.27465 12.375 7.7781 12.8777 7.7781 13.5V16.5938C7.7781 17.3707 7.15655 18 6.38915 18H4.4481C4.39602 18 4.34393 17.9965 4.29184 17.993C4.25018 17.9965 4.20851 18 4.16684 18H3.61126C2.84422 18 2.22231 17.3707 2.22231 16.5938V12.6562C2.22231 12.6246 2.22336 12.5895 2.22544 12.5578V10.1109H1.11289C0.486826 10.1109 0 9.61523 0 8.98242C0 8.66602 0.10431 8.38477 0.347584 8.13867L9.25038 0.281812C9.49345 0.0352266 9.77124 0 10.0143 0C10.2574 0 10.5352 0.0704531 10.747 0.246586L14.445 3.54023V2.25C14.445 1.62879 14.9416 1.125 15.5562 1.125H16.6674C17.282 1.125 17.7785 1.62879 17.7785 2.25V6.50391L19.6119 8.13867C19.8897 8.38477 20.0321 8.66602 19.9939 8.98242C19.9939 9.61523 19.473 10.1109 18.8827 10.1109H17.7716Z" fill="black"/>
</svg>
