<svg width="18" height="13" viewBox="0 0 18 13" fill="none" xmlns="http://www.w3.org/2000/svg">
<path d="M17.7509 7.07507L11.7506 12.7616C11.2148 13.2693 10.2862 12.9139 10.2862 12.1862V8.93674H5.42884C4.95382 8.93674 4.57166 8.57456 4.57166 8.12437V4.87491C4.57166 4.42472 4.95382 4.06255 5.42884 4.06255H10.2862V0.813085C10.2862 0.0887261 11.2113 -0.270068 11.7506 0.23766L17.7509 5.92421C18.083 6.24239 18.083 6.75689 17.7509 7.07507ZM6.85748 12.5924V11.2384C6.85748 11.015 6.66462 10.8323 6.42889 10.8323H3.42874C2.79657 10.8323 2.28583 10.3482 2.28583 9.7491V3.25018C2.28583 2.65106 2.79657 2.16703 3.42874 2.16703H6.42889C6.66462 2.16703 6.85748 1.98424 6.85748 1.76084V0.406902C6.85748 0.183502 6.66462 0.00071991 6.42889 0.00071991H3.42874C1.53579 0.00071991 0 1.45621 0 3.25018V9.7491C0 11.5431 1.53579 12.9986 3.42874 12.9986H6.42889C6.66462 12.9986 6.85748 12.8158 6.85748 12.5924Z" fill="black"/>
</svg>
