<svg width="54" height="47" viewBox="0 0 54 47" fill="white" xmlns="http://www.w3.org/2000/svg">
<mask id="mask0_552_1086" style="mask-type:alpha" maskUnits="userSpaceOnUse" x="0" y="0" width="54" height="47">
<rect width="53.2289" height="47"/>
</mask>
<g mask="url(#mask0_552_1086)">
<g opacity="0.1">
<path d="M46.8808 23.908C43.4997 32.8272 37.7241 27.7572 26.6153 35.897C4.55774 46.6445 -1.99423 11.7226 21.3783 5.51537C32.6284 2.19145 51.3177 12.2039 46.8808 23.908Z"/>
<path d="M4.95884 25.5513C3.66295 22.2764 0.0320453 23.6599 1.23178 26.9693C2.52909 30.2495 6.15999 28.8659 4.95884 25.5513Z" />
<path d="M5.09003 20.9472C3.83167 19.5508 2.27291 20.9213 3.48914 22.3519C4.74751 23.7483 6.30626 22.3778 5.09003 20.9472Z"/>
<path d="M46.5417 29.1835C45.001 28.1051 43.7874 29.7873 45.2942 30.909C46.8349 31.9874 48.0485 30.3052 46.5417 29.1835Z" />
<path d="M42.3095 35.0128C38.7981 34.7434 39.0459 30.8626 42.5617 31.0311C46.0731 31.3004 45.8252 35.1813 42.3095 35.0128Z"/>
</g>
</g>
<path d="M42.3654 9.0603H34.1271C32.5599 9.0603 31.7749 10.9516 32.8833 12.0578L35.0497 14.2206L30.9049 18.358C28.7078 16.8464 26.1463 16.0899 23.5885 16.0899C20.0774 16.0898 16.5677 17.5122 13.9967 20.362C9.5439 25.3013 9.7056 33.1657 14.3441 37.9287C16.9452 40.6014 20.3064 41.9037 23.6646 41.9037C26.9658 41.9037 30.2743 40.6467 32.7955 38.1321C37.2666 33.6698 37.7538 26.7477 34.2895 21.736L38.4343 17.5986L40.6007 19.7613C40.9606 20.1154 41.3996 20.2764 41.8313 20.2764C42.7312 20.2764 43.6019 19.574 43.6019 18.5204V10.2309C43.6019 9.65001 43.0751 9.0603 42.3654 9.0603ZM28.6398 33.9946C27.2679 35.3635 25.4659 36.0484 23.6646 36.0484C21.8626 36.0484 20.0613 35.3639 18.6887 33.9946C15.945 31.2561 15.945 26.8004 18.6887 24.0589C20.0605 22.69 21.8626 22.0052 23.6646 22.0052C25.4666 22.0052 27.2679 22.6898 28.6398 24.0589C31.3834 26.7953 31.3834 31.2583 28.6398 33.9946Z"/>
</svg>
 