<svg width="16" height="14" viewBox="0 0 16 14" fill="none" xmlns="http://www.w3.org/2000/svg">
<path d="M15.4286 2.57143H0.571428C0.255821 2.57143 0 2.31561 0 2V0.571429C0 0.255821 0.255821 0 0.571428 0H15.4286C15.7442 0 16 0.255821 16 0.571429V2C16 2.31561 15.7442 2.57143 15.4286 2.57143ZM15.4286 8.28572H0.571428C0.255821 8.28572 0 8.02989 0 7.71429V6.28571C0 5.97011 0.255821 5.71429 0.571428 5.71429H15.4286C15.7442 5.71429 16 5.97011 16 6.28571V7.71429C16 8.02989 15.7442 8.28572 15.4286 8.28572ZM15.4286 14H0.571428C0.255821 14 0 13.7442 0 13.4286V12C0 11.6844 0.255821 11.4286 0.571428 11.4286H15.4286C15.7442 11.4286 16 11.6844 16 12V13.4286C16 13.7442 15.7442 14 15.4286 14Z" fill="#000000"/>
</svg>
