<svg width="20" height="22" viewBox="0 0 20 22" fill="none" xmlns="http://www.w3.org/2000/svg">
<path d="M9.71429 10.7305C12.7804 10.7305 15.2653 8.38027 15.2653 5.48047C15.2653 2.58066 12.7804 0.230469 9.71429 0.230469C6.64821 0.230469 4.16327 2.58066 4.16327 5.48047C4.16327 8.38027 6.64821 10.7305 9.71429 10.7305ZM14.1714 12.043H13.4472C12.4844 12.4613 10.8418 12.6992 9.71429 12.6992C8.58674 12.6992 7.5199 12.4613 6.55281 12.043H5.82857C2.61071 12.043 0 14.5121 0 17.5555V19.2617C0 20.3486 0.932398 21.2305 2.08163 21.2305H17.9184C19.0676 21.2305 20 20.3486 20 19.2617V17.5555C20 14.5121 17.3893 12.043 14.1714 12.043Z" fill="black"/>
</svg>
