<svg width="20" height="23" viewBox="0 0 20 23" fill="none" xmlns="http://www.w3.org/2000/svg">
<path d="M19.9427 7.38906C20.0794 7.75859 19.9634 8.17539 19.6816 8.44609L17.887 10.1391C17.9326 10.4957 17.9575 10.8609 17.9575 11.2305C17.9575 11.6 17.9326 11.9652 17.887 12.3219L19.6816 14.0148C19.9634 14.2855 20.0794 14.7023 19.9427 15.0719C19.7603 15.5832 19.5406 16.0773 19.292 16.5457L19.0972 16.8937C18.8237 17.3664 18.517 17.8133 18.1813 18.2387C17.9326 18.5438 17.5306 18.6512 17.1659 18.5309L14.8575 17.766C14.3022 18.2086 13.6515 18.5781 13.034 18.8617L12.5159 21.3152C12.433 21.702 12.1429 21.977 11.7617 22.0801C11.1897 22.1789 10.6012 22.2305 9.963 22.2305C9.39936 22.2305 8.81086 22.1789 8.23894 22.0801C7.85766 21.977 7.56755 21.702 7.48466 21.3152L6.96662 18.8617C6.3118 18.5781 5.69844 18.2086 5.14309 17.766L2.83633 18.5309C2.46997 18.6512 2.06589 18.5438 1.82054 18.2387C1.48444 17.8133 1.17775 17.3664 0.904223 16.8937L0.710266 16.5457C0.458703 16.0773 0.23988 15.5832 0.0562839 15.0719C-0.0779939 14.7023 0.0351476 14.2855 0.319452 14.0148L2.11231 12.3219C2.06672 11.9652 2.0431 11.6 2.0431 11.2305C2.0431 10.8609 2.06672 10.4957 2.11231 10.1391L0.319452 8.44609C0.0351476 8.17539 -0.0779939 7.76289 0.0562839 7.38906C0.23988 6.87773 0.459117 6.38359 0.710266 5.91523L0.903809 5.56719C1.17775 5.09453 1.48444 4.64766 1.82054 4.22441C2.06589 3.91719 2.46997 3.81063 2.83633 3.9318L5.14309 4.69492C5.69844 4.25063 6.3118 3.88109 6.96662 3.60051L7.48466 1.14699C7.56755 0.756836 7.85766 0.447031 8.23894 0.381289C8.81086 0.282074 9.39936 0.230469 10.0003 0.230469C10.6012 0.230469 11.1897 0.282074 11.7617 0.381289C12.1429 0.447031 12.433 0.756836 12.5159 1.14699L13.034 3.60051C13.6515 3.88109 14.3022 4.25063 14.8575 4.69492L17.1659 3.9318C17.5306 3.81063 17.9326 3.91719 18.1813 4.22441C18.517 4.64766 18.8237 5.09453 19.0972 5.56719L19.292 5.91523C19.5406 6.38359 19.7603 6.87773 19.9427 7.38906ZM10.0003 14.668C11.8321 14.668 13.3158 13.1297 13.3158 11.1918C13.3158 9.33125 11.8321 7.7543 10.0003 7.7543C8.16848 7.7543 6.6848 9.33125 6.6848 11.1918C6.6848 13.1297 8.16848 14.668 10.0003 14.668Z" fill="black"/>
</svg>
